<svg fill="#46c1ae" stroke="#46c1ae" xmlns="http://www.w3.org/2000/svg" viewBox="0 0 153.38 194.24"><path stroke-miterlimit="10" d="M77.5.08L76.69 0 0 8.04v140.57l76.69 45.63 76.69-45.63V8.04L77.5.08zm65.85 142.82l-66.66 39.66-66.66-39.66V85.29L76.4 124.8l.11 7.16-45.53-27.1-.07 6.95 45.71 27.47.11 7.35-45.7-27.19-.07 6.95 45.71 27.47 46.15-27.62v-6.98l-.06.03V96.6l20.57-12.28v58.58zm-.05-66.06l-18.24 10.74-8.42 4.96-40.15-23.87-.07 6.95 34.32 20.41-.3.18-.74.44-4.88 2.87-28.33-16.86-.07 6.95 22.36 13.3-5.28 3.53-.13.08-16.89-9.95-.07 6.95 11.08 6.53-11.29 6.78-66.02-39.27L76.32 37.8v.01l66.98 39.03zm.05-6.99L76.33 30.34v-.01h-.02v.01L10.03 69.81V17.08l66.66-6.99 66.66 6.99v52.77z"/></svg>