<?xml version="1.0" encoding="utf-8"?>
<!-- Generator: Adobe Illustrator 23.0.3, SVG Export Plug-In . SVG Version: 6.00 Build 0)  -->
<svg version="1.1" xmlns="http://www.w3.org/2000/svg" xmlns:xlink="http://www.w3.org/1999/xlink" x="0px" y="0px"
	 viewBox="66.46 244.98 463.68 350.86" enable-background="new 66.46 244.98 463.68 350.86" xml:space="preserve">
<g id="Laag_1">
	<g>
		<path fill="#63D1BB" stroke="#FFFFFF" stroke-width="25" stroke-miterlimit="10" d="M509.53,328.75c0,0-4.19-31.86-17.21-45.81
			c-16.51-18.37-34.88-18.49-43.37-19.53c-60.57-4.65-151.38-4.65-151.38-4.65h-0.23c0,0-90.8,0-151.38,4.65
			c-8.49,1.05-26.86,1.16-43.37,19.53C89.7,297.01,85.4,328.75,85.4,328.75s-4.07,37.32-4.07,74.64v35c0,37.32,4.3,74.64,4.3,74.64
			s4.19,31.86,17.21,45.81c16.51,18.37,38.02,17.79,47.67,19.77c34.65,3.49,147.08,4.65,147.08,4.65s90.92-0.12,151.49-4.77
			c8.49-1.05,26.86-1.16,43.37-19.53c12.91-13.95,17.21-45.81,17.21-45.81s4.3-37.32,4.3-74.64v-35
			C513.84,366.07,509.53,328.75,509.53,328.75z"/>
	</g>
</g>
<g id="Layer_2">
	<polygon fill="#FFFFFF" points="243.52,339.79 243.52,502.1 378.73,420.95 	"/>
</g>
</svg>
